<svg xmlns="http://www.w3.org/2000/svg" viewBox="0 0 600 600"><defs><linearGradient id="linear-gradient" y1="263.41" x2="509.75" y2="263.41" gradientUnits="userSpaceOnUse"><stop offset="0" stop-color="#ae2354"/><stop offset="1" stop-color="#a91f52"/></linearGradient><style>.cls-12{fill:#221e20}.cls-9{fill:#c75d5c}.cls-10{fill:#dfdfd0}.cls-11{opacity:.2}.cls-13{fill:#505d73}</style></defs><g style="isolation:isolate"><g id="Ebene_2" data-name="Ebene 2"><g id="_1" data-name="1"><g id="BG"><path d="M589.52 386.31c.5-2.13 1.09-4.35 1.58-6.48.2-.87.4-1.74.5-2.42.69-3 1.38-5.71 2-8.71 0-.2 0-.39.2-.49.5-2.61 1.09-5.41 1.58-8a11.79 11.79 0 0 0 .4-2.61c.39-2.13.69-4.36 1.09-6.48.19-.87.19-1.55.39-2.42.4-2.81.69-5.71 1.09-8.52a2 2 0 0 1 .2-1.06c.19-2.62.49-5 .69-7.65 0-.87.2-1.74.2-2.61.19-2.23.19-4.36.39-6.49v-2.22c0-2.81.2-5.71.2-8.52v-1.35c0-2.42 0-4.84-.2-7.26a11.49 11.49 0 0 0-.2-2.61c-.19-2.23-.19-4.36-.39-6.58a8 8 0 0 0-.2-2.13c-.2-2.81-.49-5.61-.69-8.32 0-.49-.2-1.07-.2-1.55-.2-2.23-.49-4.74-.89-7-.2-.87-.2-1.74-.39-2.61-.4-2.23-.7-4.36-1.09-6.49-.2-.67-.2-1.35-.4-1.93-.49-2.81-1.08-5.62-1.58-8.32-.2-.49-.2-1.07-.39-1.75-.5-2.22-.89-4.35-1.39-6.58a20.75 20.75 0 0 1-.49-2.42c-.5-2.22-1.09-4.35-1.78-6.48a11.38 11.38 0 0 1-.5-1.74c-.69-2.81-1.58-5.42-2.27-8a11.45 11.45 0 0 1-.49-1.75c-.7-2.13-1.39-4.16-2.18-6.29-.39-.87-.49-1.54-.89-2.42-.69-2.12-1.58-4.35-2.27-6.48-.2-.48-.4-1.06-.5-1.35-1.08-2.62-2.17-5.23-3.16-7.84-.2-.49-.49-1.26-.69-1.74-.89-2.13-1.78-4-2.67-6.1-.4-.68-.69-1.55-1.09-2.23-1.08-2.13-2.17-4.35-3.16-6.48a3.57 3.57 0 0 1-.49-1.26c-1.29-2.42-2.48-5-4-7.45-.39-.48-.69-1.26-1.09-1.74-1.08-1.94-2.17-3.87-3.16-5.71-.39-.68-.89-1.36-1.28-2.13-1.29-2.13-2.48-4.36-4-6.48-.2-.39-.39-.49-.49-.88-1.39-2.41-3.07-4.74-4.65-7.16-.39-.48-.89-1.25-1.28-1.74-1.29-1.74-2.48-3.68-3.76-5.42-.49-.68-.89-1.26-1.38-1.93-1.59-2.13-3.17-4.16-4.85-6.49-.2-.19-.2-.38-.39-.38-1.78-2.23-3.56-4.55-5.34-6.58-.5-.49-.89-1.26-1.39-1.75-1.38-1.74-2.86-3.29-4.25-4.84-.49-.48-1.08-1.25-1.58-1.74a292.41 292.41 0 0 0-134.09-85.28C237.11-10 72.22 74.9 24.08 226.73c-39.44 124.36 11.57 255.19 116.55 324.19.39.19.49.39.89.48 3.16 2.13 6.42 4 9.59 6.1 3.16 1.94 6.62 3.87 9.78 5.61a1.25 1.25 0 0 0 .7.39c3.16 1.74 6.42 3.48 9.78 5 .5.2.89.49 1.39.68 3.36 1.55 6.72 3.1 10.08 4.74a.59.59 0 0 1 .39.2c3.37 1.35 6.63 2.8 10 4.16.49.19 1.09.48 1.58.67 3.36 1.36 6.72 2.62 10.08 3.88.69.19 1.29.48 2 .67q5.34 1.89 10.68 3.49a296.19 296.19 0 0 0 94.43 12.9c2.47 0 4.84-.2 7.32-.39 4.84-.19 9.58-.48 14.43-1.06q4-.3 8-.88a266.15 266.15 0 0 0 34.11-6.29c2.27-.48 4.65-1.25 6.92-1.74 4.65-1.26 9.09-2.61 13.54-4 2.87-.87 5.74-1.93 8.5-3 6-2.13 12.06-4.55 18-7a297.94 297.94 0 0 0 43.4-22.94q5.94-3.92 11.57-7.84a280.72 280.72 0 0 0 27.38-22.06c3.56-3.1 6.92-6.48 10.08-9.77a285 285 0 0 0 70.39-115.84c.89-2.81 1.78-5.71 2.47-8.52a3.83 3.83 0 0 0 1.41-2.25Z" style="fill-opacity:.2;fill:#221e20"/><g id="KREISE_BG"><path d="M575.09 373.44C607.41 271.54 579 165.19 509.75 92a294.53 294.53 0 0 0-86.4-42.49c-155.1-47.12-320 37.75-368.13 189.58-32.33 101.9-4 208.25 65.34 281.41A294.41 294.41 0 0 0 207 563c155.06 47.15 320-37.72 368.09-189.56Z" style="fill:#384251"/><path d="M120.56 520.53c-69.3-73.06-97.76-179.31-65.34-281.41 48.14-151.83 213-236.7 368.13-189.58A297 297 0 0 1 509.75 92a295.11 295.11 0 0 0-128.31-79C226.33-34.16 61.45 50.71 13.31 202.64-26.14 327 24.87 457.83 129.85 526.82c-3.26-2.12-6.22-4.16-9.29-6.29Z" style="fill:url(#linear-gradient)"/><path d="M120.56 520.53c-69.3-73.06-97.76-179.31-65.34-281.41 48.14-151.83 213-236.7 368.13-189.58A297 297 0 0 1 509.75 92a295.11 295.11 0 0 0-128.31-79C226.33-34.16 61.45 50.71 13.31 202.64-26.14 327 24.87 457.83 129.85 526.82c-3.26-2.12-6.22-4.16-9.29-6.29Z" style="mix-blend-mode:lighten;fill:#384251"/><path d="M120.56 520.53c-69.3-73.06-97.76-179.31-65.34-281.41 48.14-151.83 213-236.7 368.13-189.58A297 297 0 0 1 509.75 92a295.11 295.11 0 0 0-128.31-79C226.33-34.16 61.45 50.71 13.31 202.64-26.14 327 24.87 457.83 129.85 526.82c-3.26-2.12-6.22-4.16-9.29-6.29Z" style="opacity:.36;fill:#384251"/></g></g><path d="M172.66 318.76c65.93-43.45 108.93-18.09 108.93-18.09s7.81 48.48-58.12 92-163.11 65.64-168.65 57.61 51.9-87.97 117.84-131.52Z" style="fill:#df985e"/><path d="M227.72 282.47c65.93-43.45 108.93-18.09 108.93-18.09s7.81 48.48-58.12 92S115.42 421.92 110 413.89s51.78-87.96 117.72-131.42Z" style="fill:#f5ce86"/><path class="cls-9" d="M97.13 317.6s129-25.45 149.27-38.8l73.35-48.49c20.27-13.45 19.38-30.09-1.78-37.25l-28.67-9.68c1.39-1 2.77-1.84 4.16-2.81 101.42-67 231.91-51.09 245.55-31.45 2.67 3.87 3.36 12.1 2.07 23.23 5.84-21.87 6.33-38.32 2.18-44.42-13.64-19.65-144.13-35.52-245.55 31.45a211.85 211.85 0 0 0-24 18.58l-17.49-5.9c-22.74-4.55-37.47-5.81-49.53-2.62-16.61 4.36-28.17 17-48.83 41.13L92.49 288c-17.4 21.76-9.89 34.15 4.64 29.6ZM247.49 393s75.66 14.79 147.59-20.32c0 0-2.35 50.87-38.22 63.38-26.87 10.54-71 24.82-134.55 43.29 0 0-30.9 8.85-28.1-10 .37-2.04 3.24-10.3 53.28-76.35Z"/><path class="cls-10" d="M421.27 339c-101.42 67-227.06 19.35-227.06 19.35s2.17-131.8 103.6-198.77 231.91-51.09 245.55-31.45C556.41 147.09 522.7 272 421.27 339Z"/><path class="cls-9" d="M154.37 397.54c-10.08 6.58-17.79 13.06-24.52 3.09-6.72-9.87 2-14.42 12.26-21l134.64-115c10.08-6.58 48.54-7.16 55.26 2.8 6.72 9.88-8 44.52-18.09 51.1Z"/><g class="cls-11"><ellipse class="cls-12" cx="394.29" cy="246.3" rx="44.29" ry="43.36"/></g><g class="cls-11"><ellipse class="cls-12" cx="467.85" cy="197.71" rx="22.24" ry="21.77"/></g><ellipse class="cls-13" cx="398.44" cy="224.9" rx="44.29" ry="43.36"/><ellipse class="cls-13" cx="472.1" cy="176.41" rx="22.24" ry="21.77"/><path class="cls-10" d="M421.27 339c-101.42 67-227.06 19.35-227.06 19.35s2.17-131.8 103.6-198.77 231.91-51.09 245.55-31.45C556.41 147.09 522.7 272 421.27 339Z"/><path class="cls-9" d="M154.37 397.54c-10.08 6.58-17.79 13.06-24.52 3.09-6.72-9.87 2-14.42 12.26-21l134.64-115c10.08-6.58 48.54-7.16 55.26 2.8 6.72 9.88-8 44.52-18.09 51.1Z"/><ellipse class="cls-13" cx="398.44" cy="224.9" rx="44.29" ry="43.36"/><ellipse class="cls-13" cx="472.1" cy="176.41" rx="22.24" ry="21.77"/></g></g></g></svg>